# xmcd CD database file
#
# Track frame offsets:
#	150
#	24812
#	45184
#	77226
#	108525
#	149198
#	167895
#	190660
#	216485
#	240522
#	244025
#	274596
#	299267
#	325451
#
# Disc length: 4694 seconds
#
# Revision: 0
# Processed by: cddbd v1.5PL3 Copyright (c) Steve Scherf et al.
# Submitted via: CDex 1.51
#
DISCID=cb12540e
DTITLE=Warne Marsh - All Music
DYEAR=1976
DGENRE=Jazz
TTITLE0=I Have a Good One for You
TTITLE1=Background Music
TTITLE2=On Purpose
TTITLE3=317 E. 32nd
TTITLE4=Lunarcy
TTITLE5=Easy Living
TTITLE6=Subconscious-Lee
TTITLE7=On Purpose
TTITLE8=A Time For Love
TTITLE9=I Have a Good One for You - false start takes 2 and 3
TTITLE10=I Have a Good One for You - alternate take 4
TTITLE11=I Have a Good One for You - alternate take 5
TTITLE12=I Have a Good One for You - alternate take 6
TTITLE13=I Have a Good One for You - alternate take 9
EXTD=YEAR: 1976
EXTT0=
EXTT1=
EXTT2=
EXTT3=
EXTT4=
EXTT5=
EXTT6=
EXTT7=
EXTT8=
EXTT9=
EXTT10=
EXTT11=
EXTT12=
EXTT13=
PLAYORDER=
